:SAMPLES-PER-SECOND 30
:FULLY-SPECIFIED
:DEGREES
100
root  -3.93882 40.8826 -0.176587 -15.258 -86.5522 16.7356
RightUpLeg  4.84842 -2.1174 -2.49542
RightLeg  -2.41473 -22.9363 0.606508
RightFoot  -1.96229 -0.317111 3.68625
RightToes  -3.10096e-008 1.75238e-005 3.56266e-009
Spine  -7.94904 -3.36973 -7.54525
Spine1  15.3665 -4.91049 6.74811
HEad  -29.0457 2.80158 3.38032
LeftShoulder1  3.4706 -6.559 -28.443
LeftArm  8.74193 6.80294 -28.8015
LeftForeArm  139.149 -50.5112 -165.628
LeftHand  0.46312 -9.82061 -3.11
RightShoulder  3.05662 5.7145 27.1716
RightArm  2.24157 -35.4463 37.9812
RightForeArm  72.1192 79.2605 85.7164
RightHand  0.595926 4.75774 6.59476
LeftUpLeg  2.56081 0.45403 1.40423
LeftLeg  -2.40379 9.08099 -0.80047
LeftFoot  -0.846641 0.240765 -2.44689
LeftToes  4.7633e-008 1.48299e-008 1.30754e-009
101
root  -3.90173 40.8844 -0.138983 -19.983 -87.5149 21.3204
RightUpLeg  4.69989 -2.00635 -2.48477
RightLeg  -2.17316 -22.064 0.390375
RightFoot  -1.88507 -0.319838 3.70885
RightToes  -3.10096e-008 1.75238e-005 3.56266e-009
Spine  -8.33941 -3.41501 -6.83507
Spine1  16.5162 -4.78955 5.79341
HEad  -29.8568 3.49624 3.6475
LeftShoulder1  3.56536 -6.92678 -28.1318
LeftArm  9.32933 7.12782 -28.7713
LeftForeArm  139.786 -50.2969 -165.763
LeftHand  0.674885 -10.7042 -4.44107
RightShoulder  2.95507 5.68909 26.1193
RightArm  7.02304 -31.2368 37.5914
RightForeArm  107.302 75.5622 130.486
RightHand  0.973194 4.54078 10.9727
LeftUpLeg  2.75998 0.466966 1.37921
LeftLeg  -2.36151 10.0461 -0.788843
LeftFoot  -0.894907 0.236645 -2.38801
LeftToes  4.7633e-008 1.48299e-008 1.30754e-009
102
root  -3.83422 40.8908 -0.111147 -30.5117 -88.4222 31.7606
RightUpLeg  4.51716 -1.88536 -2.45807
RightLeg  -2.09698 -21.2899 0.265093
RightFoot  -1.74881 -0.320113 3.67637
RightToes  -3.10096e-008 1.75238e-005 3.56266e-009
Spine  -8.44661 -3.02889 -5.76566
Spine1  16.2515 -4.02967 4.42642
HEad  -28.7436 2.84604 4.65238
LeftShoulder1  3.592 -7.22635 -27.3997
LeftArm  7.30615 2.16722 -29.3324
LeftForeArm  136.825 -53.0997 -164.186
LeftHand  0.662278 -9.86362 -4.61222
RightShoulder  2.97901 5.9972 25.2917
RightArm  11.073 -23.5963 36.8663
RightForeArm  113.573 70.1104 145.862
RightHand  1.17941 5.01506 12.8203
LeftUpLeg  2.89347 0.429627 1.32856
LeftLeg  -2.42219 11.0571 -0.752564
LeftFoot  -0.855133 0.23724 -2.40168
LeftToes  4.7633e-008 1.48299e-008 1.30754e-009
103
root  -3.7403 40.8967 -0.0835156 -59.3471 -89.1003 60.6335
RightUpLeg  4.14659 -1.84553 -2.48981
RightLeg  -1.98508 -20.4799 0.239121
RightFoot  -1.60544 -0.318751 3.59537
RightToes  -3.10096e-008 1.75238e-005 3.56266e-009
Spine  -8.41992 -2.74707 -5.01315
Spine1  15.3602 -3.49053 3.55388
HEad  -26.123 2.95632 5.78664
LeftShoulder1  3.59876 -7.35468 -27.0593
LeftArm  2.75256 -6.86277 -29.5262
LeftForeArm  129.346 -58.6456 -160.257
LeftHand  0.57779 -8.4118 -4.47665
RightShoulder  3.15295 6.72333 24.7286
RightArm  12.1609 -11.3423 36.1561
RightForeArm  107.146 67.6565 149.171
RightHand  1.35395 4.12108 16.1467
LeftUpLeg  2.83895 0.460638 1.33805
LeftLeg  -2.48675 11.9206 -0.832885
LeftFoot  -0.775252 0.23229 -2.32824
LeftToes  4.7633e-008 1.48299e-008 1.30754e-009
104
root  -3.65063 40.9033 -0.0697481 -115.405 -89.1686 116.577
RightUpLeg  4.03146 -1.7393 -2.47891
RightLeg  -2.04974 -19.736 0.153707
RightFoot  -1.36029 -0.316194 3.48888
RightToes  -3.10096e-008 1.75238e-005 3.56266e-009
Spine  -7.96316 -2.3847 -4.37846
Spine1  13.4494 -2.85648 2.7072
HEad  -21.5678 2.90657 6.7425
LeftShoulder1  3.57711 -7.64888 -25.9535
LeftArm  -3.00422 -15.8727 -29.9298
LeftForeArm  115.133 -66.3325 -151.58
LeftHand  0.436921 -6.72992 -3.80295
RightShoulder  3.29102 7.46269 23.8751
RightArm  10.0214 3.23001 35.617
RightForeArm  93.0237 69.5242 144.562
RightHand  1.48228 3.57298 18.7362
LeftUpLeg  3.02192 0.499351 1.33188
LeftLeg  -2.70098 12.7375 -0.941806
LeftFoot  -0.586152 0.229534 -2.28793
LeftToes  4.7633e-008 1.48299e-008 1.30754e-009
105
root  -3.56521 40.911 -0.0543335 -153.131 -88.6933 154.226
RightUpLeg  3.92599 -1.56026 -2.33886
RightLeg  -2.1826 -19.1423 0.122682
RightFoot  -1.07673 -0.315926 3.43869
RightToes  -3.10096e-008 1.75238e-005 3.56266e-009
Spine  -7.77538 -1.93795 -3.80407
Spine1  11.9535 -2.34261 2.45321
HEad  -16.3707 2.07535 6.55822
LeftShoulder1  3.4684 -7.84682 -24.3597
LeftArm  -8.76681 -25.4388 -30.6104
LeftForeArm  87.617 -74.8454 -128.735
LeftHand  0.0526548 -4.41033 -0.315399
RightShoulder  3.22647 8.11942 21.4684
RightArm  5.45454 16.7758 35.2279
RightForeArm  69.9951 74.0899 129.709
RightHand  1.30238 3.0607 17.4796
LeftUpLeg  3.06594 0.607443 1.45808
LeftLeg  -2.71383 13.3813 -0.976949
LeftFoot  -0.512516 0.232943 -2.34551
LeftToes  4.7633e-008 1.48299e-008 1.30754e-009
106
root  -3.4883 40.9213 -0.0360159 -165.526 -88.1502 166.625
RightUpLeg  3.73698 -1.38281 -2.19089
RightLeg  -2.26064 -18.7588 0.0838527
RightFoot  -0.858336 -0.313486 3.37741
RightToes  -3.10096e-008 1.75238e-005 3.56266e-009
Spine  -6.91152 -1.33496 -2.92536
Spine1  9.66019 -1.61003 1.83908
HEad  -11.7097 1.24136 6.82198
LeftShoulder1  3.11431 -7.54036 -21.8584
LeftArm  -14.4468 -33.8621 -31.6984
LeftForeArm  29.8492 -77.5576 -73.2998
LeftHand  -0.307209 -1.90424 5.11399
RightShoulder  2.96027 8.33428 18.504
RightArm  -1.08684 26.9283 34.1972
RightForeArm  28.6904 77.5011 94.9213
RightHand  0.894466 2.12298 13.7212
LeftUpLeg  2.99134 0.699678 1.57278
LeftLeg  -2.67298 13.9132 -0.993246
LeftFoot  -0.467502 0.234954 -2.38764
LeftToes  4.7633e-008 1.48299e-008 1.30754e-009
107
root  -3.46118 40.9294 -0.0254922 -167.814 -87.7357 169.014
RightUpLeg  3.49383 -1.33425 -2.20186
RightLeg  -2.21374 -18.3925 0.0258571
RightFoot  -0.67424 -0.314064 3.3694
RightToes  -3.10096e-008 1.75238e-005 3.56266e-009
Spine  -6.60506 -0.713345 -1.82163
Spine1  8.11913 -0.710799 0.554267
HEad  -8.66817 0.0549642 7.67603
LeftShoulder1  2.71735 -7.12309 -19.0728
LeftArm  -20.5797 -41.4428 -32.855
LeftForeArm  -14.823 -69.2032 -34.1734
LeftHand  -0.489101 0.26777 11.0534
RightShoulder  2.62526 8.04937 16.0047
RightArm  -9.15522 34.6001 32.4601
RightForeArm  -21.4958 73.8668 50.4338
RightHand  0.53075 1.82846 8.30656
LeftUpLeg  2.96785 0.641453 1.53366
LeftLeg  -2.85362 14.4034 -1.04597
LeftFoot  -0.31891 0.230094 -2.3219
LeftToes  4.7633e-008 1.48299e-008 1.30754e-009
108
root  -3.46339 40.9373 -0.0233098 -167.282 -87.558 168.616
RightUpLeg  3.25608 -1.35396 -2.26502
RightLeg  -2.04851 -18.1796 -0.0384877
RightFoot  -0.635405 -0.315724 3.38547
RightToes  -3.10096e-008 1.75238e-005 3.56266e-009
Spine  -6.15848 -0.09049 -0.794095
Spine1  6.40877 0.180528 -0.808099
HEad  -6.35067 -1.40901 8.49108
LeftShoulder1  2.50859 -6.97627 -17.288
LeftArm  -28.6669 -47.6602 -32.8025
LeftForeArm  -31.5206 -57.4378 -20.1775
LeftHand  -0.478024 1.2967 13.4179
RightShoulder  2.18585 7.32307 13.2425
RightArm  -19.1182 40.0149 31.4437
RightForeArm  -50.4711 63.3566 26.7545
RightHand  0.409672 0.973684 7.40998
LeftUpLeg  2.92992 0.543436 1.44426
LeftLeg  -3.05446 14.6966 -1.08664
LeftFoot  -0.201953 0.226049 -2.26913
LeftToes  4.7633e-008 1.48299e-008 1.30754e-009
109
root  -3.50632 40.9374 -0.0295048 -165.967 -87.844 167.318
RightUpLeg  3.48844 -1.38865 -2.25441
RightLeg  -2.38536 -18.4827 0.11929
RightFoot  -0.581068 -0.309325 3.28454
RightToes  -3.10096e-008 1.75238e-005 3.56266e-009
Spine  -5.70951 0.170385 0.0737992
Spine1  4.72091 0.64796 -2.13914
HEad  -4.41827 -2.79328 9.25801
LeftShoulder1  2.28836 -6.55633 -16.0028
LeftArm  -39.3951 -52.8123 -32.9892
LeftForeArm  -33.2382 -44.2676 -12.6568
LeftHand  -0.36207 1.67903 11.2665
RightShoulder  1.91512 6.99639 11.0813
RightArm  -30.7662 43.5174 30.6805
RightForeArm  -59.1803 50.9346 16.4924
RightHand  0.394487 0.881598 7.45849
LeftUpLeg  2.91947 0.513008 1.44688
LeftLeg  -2.98786 14.4311 -0.997937
LeftFoot  -0.249603 0.232128 -2.37542
LeftToes  4.7633e-008 1.48299e-008 1.30754e-009
110
root  -3.56859 40.9348 -0.0414065 -162.184 -88.3138 163.522
RightUpLeg  3.69675 -1.45223 -2.26196
RightLeg  -2.41424 -18.827 0.187004
RightFoot  -0.696824 -0.319454 3.44892
RightToes  -3.10096e-008 1.75238e-005 3.56266e-009
Spine  -5.4443 0.405761 1.00702
Spine1  3.32238 1.12157 -3.73221
HEad  -2.91747 -3.454 9.95341
LeftShoulder1  2.17651 -6.42337 -15.1036
LeftArm  -52.1077 -56.1761 -31.8282
LeftForeArm  -29.0565 -33.4114 -8.79057
LeftHand  -0.32709 1.47792 9.61433
RightShoulder  1.83235 6.79107 10.5843
RightArm  -44.5827 45.7057 28.6658
RightForeArm  -57.1752 40.777 12.0036
RightHand  0.178125 1.24053 2.80965
LeftUpLeg  2.98018 0.553944 1.4936
LeftLeg  -2.98185 13.9413 -0.992036
LeftFoot  -0.348301 0.235732 -2.44614
LeftToes  4.7633e-008 1.48299e-008 1.30754e-009
